<svg width="44" height="44" viewBox="0 0 44 44" fill="none" xmlns="http://www.w3.org/2000/svg">
<path d="M35.6727 14.0565C28.1455 7.35856 13.9005 8.66699 3.21788 21.3293C9.11876 12.3185 21.8965 3.86172 31.9265 7.23144C52.0328 16.2643 34.3805 36.627 20.5478 37.9786C33.9696 33.3002 41.4921 19.2347 35.6727 14.0565Z" fill="#2F82F7"/>
<path d="M35.6721 14.0568C41.8597 19.7063 32.8697 33.9556 20.5607 37.9925C29.4937 31.9007 35.8963 20.1769 35.6721 14.0568Z" fill="#2F82F7"/>
<path d="M35.6721 14.0568C41.8597 19.7063 32.8697 33.9556 20.5607 37.9925C29.4937 31.9007 35.8963 20.1769 35.6721 14.0568Z" fill="black" fill-opacity="0.2"/>
<path d="M26.8056 26.8573C20.2154 36.0869 14.5655 36.1073 5.68987 37.4043C5.68987 37.4043 13.678 30.4871 15.4289 26.135L7.81919 22.8478C12.9839 14.84 19.0947 14.6563 29.7469 13.4316C23.9604 17.912 20.2639 20.2163 19.4727 23.6232L26.8056 26.8573Z" fill="#2F82F7"/>
<path d="M5.80525 37.3868C12.7157 33.2361 16.5559 31.0003 17.9775 27.231L15.4356 26.133C13.2562 30.5843 9.89905 32.8433 5.80525 37.3868Z" fill="#2668C6"/>
<path d="M29.7697 13.4177C22.4965 16.3277 18.3678 18.0733 16.7475 22.4303L19.452 23.6231C20.2431 20.2162 23.9833 17.898 29.7697 13.4177Z" fill="#2D2DFF" fill-opacity="0.5"/>
<path d="M29.7697 13.4177C22.4965 16.3277 18.3678 18.0733 16.7475 22.4303L19.452 23.6231C20.2431 20.2162 23.9833 17.898 29.7697 13.4177Z" fill="#2668C6"/>
</svg>
